<svg width="75" height="75" viewBox="0 0 75 75" fill="none" xmlns="http://www.w3.org/2000/svg">
<path d="M37.5 0C16.7906 0 0 16.7906 0 37.5C0 58.2094 16.7906 75 37.5 75C58.2094 75 75 58.2094 75 37.5C75 16.786 58.2094 0 37.5 0ZM47.1937 37.4952L41.0484 37.4998L41.0438 59.9998H32.6109V37.5H26.986V29.7468L32.6109 29.7422L32.6015 25.1766C32.6015 18.8485 34.3171 15.0001 41.7655 15.0001H47.9718V22.7579H44.0905C41.189 22.7579 41.0484 23.8406 41.0484 25.8609L41.039 29.7422H48.0139L47.1937 37.4952Z" fill="#FAFAFA"/>
</svg>
