<svg width="75" height="75" viewBox="0 0 75 75" fill="none" xmlns="http://www.w3.org/2000/svg">
<path d="M44.6777 37.5C44.6777 41.4642 41.4642 44.6777 37.5 44.6777C33.5358 44.6777 30.3223 41.4642 30.3223 37.5C30.3223 33.5358 33.5358 30.3223 37.5 30.3223C41.4642 30.3223 44.6777 33.5358 44.6777 37.5Z" fill="#FAFAFA"/>
<path d="M54.2862 24.8005C53.9412 23.8655 53.3907 23.0192 52.6754 22.3246C51.9808 21.6093 51.1351 21.0589 50.1995 20.7138C49.4408 20.4191 48.3009 20.0684 46.2015 19.9728C43.9304 19.8692 43.2495 19.8469 37.5 19.8469C31.7499 19.8469 31.069 19.8687 28.7985 19.9722C26.6991 20.0684 25.5587 20.4191 24.8005 20.7138C23.8649 21.0589 23.0186 21.6093 22.3246 22.3246C21.6093 23.0192 21.0588 23.8649 20.7132 24.8005C20.4185 25.5592 20.0678 26.6996 19.9722 28.7991C19.8687 31.0696 19.8463 31.7505 19.8463 37.5006C19.8463 43.2501 19.8687 43.931 19.9722 46.2021C20.0678 48.3015 20.4185 49.4413 20.7132 50.2001C21.0588 51.1356 21.6087 51.9814 22.324 52.676C23.0186 53.3913 23.8644 53.9417 24.7999 54.2868C25.5587 54.582 26.6991 54.9328 28.7985 55.0283C31.069 55.1319 31.7493 55.1537 37.4994 55.1537C43.2501 55.1537 43.931 55.1319 46.2009 55.0283C48.3004 54.9328 49.4408 54.582 50.1995 54.2868C52.0775 53.5624 53.5618 52.0781 54.2862 50.2001C54.5809 49.4413 54.9316 48.3015 55.0278 46.2021C55.1313 43.931 55.1531 43.2501 55.1531 37.5006C55.1531 31.7505 55.1313 31.0696 55.0278 28.7991C54.9322 26.6996 54.5815 25.5592 54.2862 24.8005ZM37.5 48.5573C31.3929 48.5573 26.4421 43.6071 26.4421 37.5C26.4421 31.3929 31.3929 26.4427 37.5 26.4427C43.6066 26.4427 48.5573 31.3929 48.5573 37.5C48.5573 43.6071 43.6066 48.5573 37.5 48.5573ZM48.9944 28.5896C47.5674 28.5896 46.4104 27.4326 46.4104 26.0056C46.4104 24.5785 47.5674 23.4215 48.9944 23.4215C50.4215 23.4215 51.5785 24.5785 51.5785 26.0056C51.5779 27.4326 50.4215 28.5896 48.9944 28.5896Z" fill="#FAFAFA"/>
<path d="M37.5 0C16.7925 0 0 16.7925 0 37.5C0 58.2075 16.7925 75 37.5 75C58.2075 75 75 58.2075 75 37.5C75 16.7925 58.2075 0 37.5 0ZM58.9033 46.3778C58.7992 48.67 58.4347 50.235 57.9025 51.6048C56.7839 54.4973 54.4973 56.7839 51.6048 57.9025C50.2356 58.4347 48.67 58.7986 46.3783 58.9033C44.0821 59.008 43.3485 59.0332 37.5006 59.0332C31.6521 59.0332 30.9191 59.008 28.6222 58.9033C26.3306 58.7986 24.765 58.4347 23.3957 57.9025C21.9584 57.3618 20.6572 56.5144 19.5814 55.4186C18.4862 54.3434 17.6388 53.0416 17.098 51.6048C16.5659 50.2356 16.2014 48.67 16.0973 46.3783C15.9914 44.0815 15.9668 43.3479 15.9668 37.5C15.9668 31.6521 15.9914 30.9185 16.0967 28.6222C16.2008 26.33 16.5648 24.765 17.0969 23.3952C17.6376 21.9584 18.4856 20.6566 19.5814 19.5814C20.6566 18.4856 21.9584 17.6382 23.3952 17.0975C24.765 16.5653 26.33 16.2014 28.6222 16.0967C30.9185 15.992 31.6521 15.9668 37.5 15.9668C43.3479 15.9668 44.0815 15.992 46.3778 16.0973C48.67 16.2014 50.235 16.5653 51.6048 17.0969C53.0416 17.6376 54.3434 18.4856 55.4192 19.5814C56.5144 20.6572 57.3624 21.9584 57.9025 23.3952C58.4352 24.765 58.7992 26.33 58.9039 28.6222C59.0086 30.9185 59.0332 31.6521 59.0332 37.5C59.0332 43.3479 59.0086 44.0815 58.9033 46.3778Z" fill="#FAFAFA"/>
</svg>
